<svg width="155" height="156" viewBox="0 0 155 156" fill="none" xmlns="http://www.w3.org/2000/svg">
<path d="M131.609 0.687988H23.3642C17.2124 0.687988 11.3126 3.13176 6.96267 7.48171C2.61272 11.8317 0.168945 17.7315 0.168945 23.8832V132.128C0.168945 138.279 2.61272 144.179 6.96267 148.529C11.3126 152.879 17.2124 155.323 23.3642 155.323H131.609C132.88 155.305 134.148 155.176 135.397 154.936L137.717 154.395H138.258H138.644L141.505 153.313L142.51 152.771C143.283 152.307 144.134 151.921 144.907 151.38C145.94 150.62 146.921 149.794 147.845 148.905L148.386 148.21C149.146 147.44 149.843 146.613 150.474 145.735L151.17 144.73C151.71 143.87 152.175 142.964 152.562 142.024C152.774 141.653 152.955 141.265 153.103 140.864C153.489 139.937 153.721 138.932 154.031 137.926V136.767C154.469 135.256 154.728 133.699 154.804 132.128V23.8832C154.804 17.7315 152.36 11.8317 148.01 7.48171C143.66 3.13176 137.76 0.687988 131.609 0.687988ZM23.3642 139.859C21.3136 139.859 19.347 139.045 17.897 137.595C16.447 136.145 15.6324 134.178 15.6324 132.128V98.8038L41.0699 73.289C41.7886 72.5644 42.6438 71.9892 43.5859 71.5966C44.5281 71.2041 45.5387 71.002 46.5594 71.002C47.5801 71.002 48.5907 71.2041 49.5328 71.5966C50.475 71.9892 51.3302 72.5644 52.0489 73.289L118.542 139.859H23.3642ZM139.34 132.128C139.333 133.081 139.15 134.025 138.799 134.911C138.622 135.288 138.416 135.65 138.181 135.993C137.974 136.321 137.741 136.631 137.485 136.921L96.1199 95.5565L102.924 88.7525C103.643 88.0278 104.498 87.4526 105.44 87.0601C106.382 86.6676 107.393 86.4655 108.413 86.4655C109.434 86.4655 110.445 86.6676 111.387 87.0601C112.329 87.4526 113.184 88.0278 113.903 88.7525V88.7525L139.34 114.267V132.128ZM139.34 92.3864L124.805 78.0054C120.38 73.807 114.513 71.4665 108.413 71.4665C102.314 71.4665 96.4467 73.807 92.022 78.0054L85.2181 84.8093L62.9507 62.5419C58.526 58.3435 52.659 56.003 46.5594 56.003C40.4598 56.003 34.5928 58.3435 30.1681 62.5419L15.6324 76.923V23.8832C15.6324 21.8326 16.447 19.866 17.897 18.416C19.347 16.9661 21.3136 16.1515 23.3642 16.1515H131.609C133.659 16.1515 135.626 16.9661 137.076 18.416C138.526 19.866 139.34 21.8326 139.34 23.8832V92.3864Z" fill="black"/>
</svg>
