<svg width="32" height="32" viewBox="0 0 32 32" fill="none" xmlns="http://www.w3.org/2000/svg">
<path fill-rule="evenodd" clip-rule="evenodd" d="M31.6004 16.0004C31.6004 7.38542 24.6153 0.400391 16.0004 0.400391C7.38542 0.400391 0.400391 7.38542 0.400391 16.0004C0.400391 23.7861 6.10429 30.2402 13.5631 31.4119V20.5108H9.60112V16.0004H13.5631V12.5627C13.5631 8.65333 15.8929 6.49247 19.4556 6.49247C21.1623 6.49247 22.948 6.79739 22.948 6.79739V10.6366H20.9802C19.0432 10.6366 18.4377 11.8388 18.4377 13.0738V16.0003H22.7636L22.0727 20.5107H18.4375V31.4117C25.8964 30.2423 31.6002 23.7882 31.6002 16.0003L31.6004 16.0004Z" fill="#1977F3"/>
<path fill-rule="evenodd" clip-rule="evenodd" d="M22.073 20.5109L22.7642 16.0005H18.4381V13.0741C18.4381 11.8412 19.0414 10.6368 20.9807 10.6368H22.9486V6.79761C22.9486 6.79761 21.1629 6.49268 19.456 6.49268C15.8934 6.49268 13.5636 8.65141 13.5636 12.5629V16.0006H9.60156V20.5111H13.5636V31.4121C14.3577 31.5369 15.1716 31.6006 16.0009 31.6006C16.8301 31.6006 17.644 31.5348 18.4381 31.4121V20.5111H22.0732L22.073 20.5109Z" fill="#FEFEFE"/>
</svg>
