<svg width="32" height="32" viewBox="0 0 32 32" fill="none" xmlns="http://www.w3.org/2000/svg">
<path d="M30.9809 16.3588C30.9809 15.2984 30.8949 14.2322 30.7114 13.189H15.9971V19.1962H24.4233C24.0736 21.1337 22.9502 22.8477 21.305 23.9367V27.8345H26.3321C29.2842 25.1175 30.9809 21.1051 30.9809 16.3588Z" fill="#4285F4"/>
<path d="M15.9972 31.6004C20.2046 31.6004 23.7528 30.219 26.3379 27.8343L21.3109 23.9365C19.9122 24.8881 18.1066 25.427 16.0029 25.427C11.9331 25.427 8.48237 22.6811 7.24423 18.9897H2.05664V23.0079C4.7049 28.2759 10.0988 31.6004 15.9972 31.6004Z" fill="#34A853"/>
<path d="M7.23876 18.9896C6.58529 17.0522 6.58529 14.9542 7.23876 13.0168V8.99854H2.05691C-0.15569 13.4066 -0.15569 18.5999 2.05691 23.0078L7.23876 18.9896Z" fill="#FBBC04"/>
<path d="M15.9972 6.57397C18.2213 6.53959 20.3708 7.37646 21.9815 8.91269L26.4354 4.45881C23.6152 1.81057 19.8721 0.354608 15.9972 0.400465C10.0988 0.400465 4.7049 3.72511 2.05664 8.99866L7.23849 13.0169C8.47089 9.31966 11.9274 6.57397 15.9972 6.57397Z" fill="#EA4335"/>
</svg>
