<svg width="34" height="27" viewBox="0 0 34 27" fill="none" xmlns="http://www.w3.org/2000/svg">
<path d="M30.3154 6.87936C30.3354 7.16796 30.3354 7.45654 30.3354 7.7478C30.3354 16.6224 23.5793 26.8574 11.2256 26.8574V26.8521C7.57629 26.8574 4.00278 25.8121 0.930664 23.8412C1.4613 23.9051 1.9946 23.9369 2.52923 23.9382C5.55348 23.9409 8.49127 22.9261 10.8705 21.0577C7.99655 21.0031 5.47634 19.1294 4.59592 16.3936C5.60269 16.5878 6.64003 16.5479 7.62816 16.2779C4.49486 15.6449 2.24064 12.8919 2.24064 9.69481C2.24064 9.66555 2.24064 9.63762 2.24064 9.6097C3.17425 10.1297 4.21956 10.4183 5.28882 10.4502C2.33772 8.47793 1.42805 4.552 3.21016 1.48253C6.62008 5.67844 11.6512 8.22923 17.052 8.49922C16.5107 6.16653 17.2502 3.72213 18.995 2.08232C21.7002 -0.460484 25.9545 -0.330153 28.4973 2.37358C30.0015 2.07701 31.4432 1.52509 32.7624 0.743096C32.261 2.29779 31.2116 3.6184 29.8099 4.45758C31.1412 4.30063 32.4419 3.94423 33.6667 3.40028C32.765 4.75149 31.6293 5.92846 30.3154 6.87936Z" fill="#1D9BF0"/>
</svg>
